<?xml version="1.0" encoding="utf-8"?>
<!-- Generator: Adobe Illustrator 27.0.0, SVG Export Plug-In . SVG Version: 6.00 Build 0)  -->
<svg version="1.1" id="add-event" xmlns="http://www.w3.org/2000/svg" xmlns:xlink="http://www.w3.org/1999/xlink" x="0px" y="0px"
	 viewBox="0 0 32 32" style="enable-background:new 0 0 32 32;" xml:space="preserve">
<style type="text/css">
	.st0{fill:#32AAD2;}
</style>
<path class="st0" d="M24,7h-1V6c0-0.6-0.4-1-1-1s-1,0.4-1,1v1H11V6c0-0.6-0.4-1-1-1S9,5.4,9,6v1H8c-1.7,0-3,1.3-3,3v14
	c0,1.7,1.3,3,3,3h16c1.7,0,3-1.3,3-3V10C27,8.3,25.7,7,24,7z M8,9h1v1c0,0.6,0.4,1,1,1s1-0.4,1-1V9h10v1c0,0.6,0.4,1,1,1s1-0.4,1-1
	V9h1c0.6,0,1,0.4,1,1v3H7v-3C7,9.4,7.4,9,8,9z M24,25H8c-0.6,0-1-0.4-1-1v-9h18v9C25,24.6,24.6,25,24,25z"/>
<path class="st0" d="M18.7,18.7h-1.3v-1.3c0-0.7-0.6-1.3-1.3-1.3c-0.7,0-1.3,0.6-1.3,1.3v1.3h-1.3c-0.7,0-1.3,0.6-1.3,1.3
	c0,0.7,0.6,1.3,1.3,1.3h1.3v1.3c0,0.7,0.6,1.3,1.3,1.3c0.7,0,1.3-0.6,1.3-1.3v-1.3h1.3c0.7,0,1.3-0.6,1.3-1.3
	C20,19.3,19.4,18.7,18.7,18.7z"/>
</svg>
